HIERARCHY
ROOT Hips
{
	OFFSET 0.000000 0.000000 0.000000
	CHANNELS 6 Xposition Yposition Zposition Zrotation Xrotation Yrotation
	JOINT RightUpLeg
	{
		OFFSET -10.032200 0.000000 0.000000
		CHANNELS 3 Zrotation Xrotation Yrotation
		JOINT RightLeg
		{
			OFFSET 0.000000 -40.977000 0.000000
			CHANNELS 3 Zrotation Xrotation Yrotation
			JOINT RightFoot
			{
				OFFSET 0.000000 -38.933200 0.000000
				CHANNELS 3 Zrotation Xrotation Yrotation
				JOINT RightToe
				{
					OFFSET 0.000000 -1.977400 9.184000
					CHANNELS 3 Zrotation Xrotation Yrotation
					JOINT RightToeEnd
					{
						OFFSET 0.000000 2.335600 6.099100
						CHANNELS 3 Zrotation Xrotation Yrotation
						End Site
						{
						    OFFSET 0.000000 1.788000 4.669400
						}
					}
				}
			}
		}
	}
	JOINT LeftUpLeg
	{
		OFFSET 10.032200 0.000000 0.000000
		CHANNELS 3 Zrotation Xrotation Yrotation
		JOINT LeftLeg
		{
			OFFSET 0.000000 -40.977000 0.000000
			CHANNELS 3 Zrotation Xrotation Yrotation
			JOINT LeftFoot
			{
				OFFSET 0.000000 -38.933200 0.000000
				CHANNELS 3 Zrotation Xrotation Yrotation
				JOINT LeftToe
				{
					OFFSET 0.000000 -1.977400 9.184000
					CHANNELS 3 Zrotation Xrotation Yrotation
					JOINT LeftToeEnd
					{
						OFFSET 0.000000 2.335600 6.099100
						CHANNELS 3 Zrotation Xrotation Yrotation
						End Site
						{
						    OFFSET 0.000000 1.788000 4.669400
						}
					}
				}
			}
		}
	}
	JOINT Spine
	{
		OFFSET 0.000000 16.960900 0.000000
		CHANNELS 3 Zrotation Xrotation Yrotation
		JOINT Spine1
		{
			OFFSET 0.000000 13.413900 0.000000
			CHANNELS 3 Zrotation Xrotation Yrotation
			JOINT Spine2
			{
				OFFSET 0.000000 10.384400 0.000000
				CHANNELS 3 Zrotation Xrotation Yrotation
				JOINT LeftShoulder
				{
					OFFSET 2.000000 10.384400 0.000000
					CHANNELS 3 Zrotation Xrotation Yrotation
					JOINT LeftArm
					{
						OFFSET 15.649100 0.000000 0.000000
						CHANNELS 3 Zrotation Xrotation Yrotation
						JOINT LeftForeArm
						{
							OFFSET 0.000000 -26.641600 0.000000
							CHANNELS 3 Zrotation Xrotation Yrotation
							JOINT LeftHand
							{
								OFFSET 0.000000 -23.740600 0.000000
								CHANNELS 3 Zrotation Xrotation Yrotation
								JOINT LeftFinger0
								{
									OFFSET 0.000000 -7.620900 0.000000
									CHANNELS 3 Zrotation Xrotation Yrotation
									End Site
									{
									    OFFSET 0.000000 -5.000000 0.000000
									}
								}
							}
						}
					}
				}
				JOINT RightShoulder
				{
					OFFSET -2.000000 10.384400 0.000000
					CHANNELS 3 Zrotation Xrotation Yrotation
					JOINT RightArm
					{
						OFFSET -15.649100 0.000000 0.000000
						CHANNELS 3 Zrotation Xrotation Yrotation
						JOINT RightForeArm
						{
							OFFSET 0.000000 -26.641600 0.000000
							CHANNELS 3 Zrotation Xrotation Yrotation
							JOINT RightHand
							{
								OFFSET 0.000000 -23.740600 0.000000
								CHANNELS 3 Zrotation Xrotation Yrotation
								JOINT RightFinger0
								{
									OFFSET 0.000000 -7.620900 0.000000
									CHANNELS 3 Zrotation Xrotation Yrotation
									End Site
									{
									    OFFSET 0.000000 -5.000000 0.000000
									}
								}
							}
						}
					}
				}
				JOINT Neck
				{
					OFFSET 0.000000 10.384400 0.000000
					CHANNELS 3 Zrotation Xrotation Yrotation
					JOINT Head
					{
						OFFSET 0.000000 10.146900 0.000000
						CHANNELS 3 Zrotation Xrotation Yrotation
						JOINT HeadTip
						{
							OFFSET 0.000000 10.000000 0.000000
							CHANNELS 3 Zrotation Xrotation Yrotation
							End Site
							{
							    OFFSET 0.000000 5.000000 0.000000
							}
						}
					}
				}
			}
		}
	}
}
MOTION
Frames:	6
Frame Time:	0.033332
-187.309100 86.332800 -33.860900 -0.794061 -0.425048 -4.725000 -1.852722 -3.300524 -20.935931 0.000000 9.248340 -0.000000 4.959708 13.527290 -0.056900 -0.000000 0.435724 -0.000000 -0.000000 -0.000000 -0.000000 2.216531 -4.633801 26.030686 -0.000000 11.034535 -0.000000 0.115381 14.101589 -6.982120 0.000000 -2.698126 0.000000 -0.000000 0.000000 0.000000 2.156704 -0.660307 2.699188 -0.000000 1.699461 -0.000000 0.000000 0.000000 -0.000000 2.733154 -0.000000 4.326415 88.529600 -8.350080 11.789079 -0.000000 -10.330627 -0.000000 -1.906844 9.207497 -16.554584 -0.000000 0.000000 0.000000 -6.623879 -0.000000 -3.790178 -89.344579 -15.103130 -13.822225 -0.000011 -4.221030 -0.000000 -0.576299 18.719729 25.597613 -0.000000 -0.000000 -0.000000 0.000000 0.000000 -0.000000 -5.212484 2.333576 3.050919 0.000000 0.000000 0.000000 
-187.314300 86.337700 -33.904700 -0.793085 -0.424933 -4.715753 -1.844257 -3.319131 -20.958160 -0.000000 9.223844 -0.000000 4.923282 13.574684 -0.036137 -0.000000 0.437943 -0.000000 0.000000 0.000000 -0.000000 2.223170 -4.660932 26.047847 0.000000 11.029251 -0.000000 0.102898 14.132690 -7.017523 0.000000 -2.601827 0.000000 -0.000000 0.000000 -0.000000 2.156549 -0.623673 2.720358 0.000000 1.728566 -0.000000 -0.000000 0.000000 -0.000000 2.838098 -0.000000 4.353037 88.532216 -8.375923 11.731560 -0.000000 -10.370176 0.000000 -1.896013 9.228670 -16.424569 -0.000000 0.000000 -0.000000 -6.682452 -0.000000 -3.803362 -89.339516 -15.062764 -13.812940 -0.000011 -4.236624 -0.000000 -0.705609 18.705723 25.613579 -0.000000 -0.000000 -0.000000 -0.000000 0.000000 -0.000000 -5.276630 2.311567 3.046906 0.000000 -0.000000 -0.000000 
-187.317700 86.347400 -33.946000 -0.793526 -0.411999 -4.693744 -1.835456 -3.342812 -20.976344 -0.000000 9.187944 -0.000000 4.926132 13.636906 -0.035692 0.000000 0.452919 -0.000000 -0.000000 -0.000000 -0.000000 2.229745 -4.706935 26.020229 -0.000000 11.027350 0.000000 0.089759 14.176873 -7.007287 -0.000000 -2.586807 -0.000000 -0.000000 -0.000000 -0.000000 2.162901 -0.601082 2.732696 0.000000 1.724228 -0.000000 -0.000000 0.000000 -0.000000 2.870910 0.000000 4.318529 88.579653 -8.371714 11.614927 -0.000000 -10.373714 0.000000 -1.852363 9.231605 -16.389454 -0.000000 0.000000 -0.000000 -6.704824 -0.000000 -3.796710 -89.338899 -15.025073 -13.838525 -0.000011 -4.284095 -0.000000 -0.876539 18.691366 25.679967 0.000000 0.000000 -0.000000 -0.000000 0.000000 -0.000000 -5.338727 2.344486 3.047038 -0.000000 0.000000 -0.000000 
-187.324000 86.353300 -33.995100 -0.794269 -0.403209 -4.642351 -1.825643 -3.372366 -21.001962 -0.000000 9.176716 -0.000000 4.929124 13.669144 -0.078345 -0.000000 0.486101 -0.000000 -0.000000 0.000000 -0.000000 2.237316 -4.741586 26.055909 -0.000000 10.999253 0.000000 0.130655 14.245009 -7.082255 -0.000000 -2.630729 -0.000000 -0.000000 -0.000000 -0.000000 2.170881 -0.568581 2.710379 0.000000 1.723355 0.000000 0.000000 -0.000000 -0.000000 2.896521 -0.000000 4.287852 88.590736 -8.371222 11.654158 -0.000000 -10.377905 -0.000000 -1.987363 9.160621 -16.461746 0.000000 0.000000 -0.000000 -6.734828 0.000000 -3.772154 -89.325839 -14.994228 -13.815692 -0.000012 -4.341590 -0.000000 -0.835967 18.667959 25.779640 -0.000000 0.000000 0.000000 0.000000 -0.000000 -0.000000 -5.379052 2.354379 3.050179 -0.000000 0.000000 -0.000000 
-187.326000 86.356400 -34.040900 -0.790594 -0.408871 -4.604528 -1.828715 -3.393713 -21.027021 -0.000000 9.177325 -0.000000 4.922945 13.686309 -0.067433 -0.000000 0.512531 0.000000 -0.000000 0.000000 -0.000000 2.240514 -4.780095 26.028837 -0.000000 11.005239 0.000000 0.042566 14.337151 -7.127207 -0.000000 -2.619002 -0.000000 -0.000000 0.000000 -0.000000 2.176735 -0.520844 2.708876 -0.000000 1.720549 -0.000000 -0.000000 0.000000 -0.000000 2.918437 -0.000000 4.265840 88.555880 -8.409655 11.676614 -0.000000 -10.435137 -0.000000 -2.053160 9.169516 -16.684850 -0.000000 -0.000000 0.000000 -6.760445 -0.000000 -3.741992 -89.308827 -15.005221 -13.862372 -0.000011 -4.297172 -0.000000 -0.910225 18.619724 25.731612 0.000000 0.000000 -0.000000 -0.000000 0.000000 -0.000000 -5.420219 2.363879 3.029679 -0.000000 -0.000000 -0.000000 
-187.325800 86.360900 -34.083500 -0.787086 -0.421342 -4.573650 -1.830788 -3.405029 -21.056395 -0.000000 9.170825 -0.000000 4.935764 13.697798 -0.089527 0.000000 0.581667 0.000000 0.000000 0.000000 -0.000000 2.244195 -4.808264 26.046504 0.000000 11.028183 -0.000000 0.132137 14.306622 -7.155697 0.000000 -2.492442 -0.000000 0.000000 0.000000 -0.000000 2.191624 -0.465633 2.720570 0.000000 1.708179 0.000000 0.000000 0.000000 -0.000000 2.918554 -0.000000 4.233478 88.486545 -8.463273 11.550126 0.000000 -10.485089 0.000000 -1.936492 9.102270 -16.614942 -0.000000 0.000000 -0.000000 -6.802401 0.000000 -3.729194 -89.261712 -15.035958 -13.918300 -0.000011 -4.300730 -0.000000 -0.912963 18.660606 25.761798 -0.000000 0.000000 -0.000000 0.000000 0.000000 -0.000000 -5.473743 2.363681 3.023250 0.000000 0.000000 0.000000 
